<svg xmlns="http://www.w3.org/2000/svg" viewBox="0 0 56.9 57.12"><defs><style>.cls-1{fill:#4ea6dd;}</style></defs><g id="Layer_2" data-name="Layer 2"><g id="Layer_1-2" data-name="Layer 1"><path class="cls-1" d="M37,49.53q-1.52,3.78-3.05,7.55c-1.27,0-2.54,0-3.81,0,.59-1.53.3-3.18.34-4.76,0-4.82,0-9.65,0-14.47a6.38,6.38,0,0,0-.36-2,13.69,13.69,0,0,0,11.29-9.29c.9-2.56.68-5.31.64-8A1.61,1.61,0,0,0,39,18.32c-.23,2.48.26,5.07-.66,7.46a10.48,10.48,0,0,1-20.06-.91c-.58-2.14-.13-4.39-.39-6.56a1.6,1.6,0,0,0-3.06.3c-.06,2.75-.26,5.62.74,8.26a13.73,13.73,0,0,0,11.2,9,12.5,12.5,0,0,0-.34,4.44c0,4.12,0,8.25,0,12.37,0,1.48-.23,3,.34,4.43-1.27-.07-2.55,0-3.82,0C15.27,38.07,7.68,19,0,0L22.48,0a9.64,9.64,0,0,0-3.09,7.74c2.29,0,4.58-.09,6.87.06a1.2,1.2,0,0,1-.16,2.3c-2.22.09-4.45,0-6.68,0,0,.8,0,1.6,0,2.41,2.21,0,4.42,0,6.63,0,1.35,0,1.35,2.28,0,2.32-2.21.11-4.43,0-6.64.06,0,.76,0,1.53,0,2.3,2.33.2,4.67-.06,7,.14A1.19,1.19,0,0,1,26,19.64c-2.21,0-4.41,0-6.62,0,0,2.19-.19,4.5.83,6.52a9,9,0,0,0,17.22-3.42c0-5.38,0-10.76,0-16.14A9.27,9.27,0,0,0,34.41,0c7.49,0,15,0,22.49,0C50.23,16.52,43.65,33,37,49.53Z"/></g></g></svg>