<svg xmlns="http://www.w3.org/2000/svg" viewBox="0 0 202.12 57.12"><defs><style>.cls-1{fill:#4ea6dd;}</style></defs><g id="Layer_2" data-name="Layer 2"><g id="Layer_1-2" data-name="Layer 1"><path d="M66.08.11l2.52,0c1.75,4.85,3.8,9.6,5.56,14.45l.46-.08C76.43,9.67,78.41,5,80.09.12c.87,0,1.73,0,2.6,0C80.43,6,77.93,11.79,75.61,17.65c-.78,0-1.57,0-2.34-.06a12.55,12.55,0,0,1-1.53-3.25C69.9,9.58,67.8,4.92,66.08.11"/><path d="M105.39.09h2.45c0,5.85,0,11.69,0,17.53l-2.46,0c0-5.85-.07-11.71,0-17.56"/><path d="M89.8.43a9.61,9.61,0,0,1,9.35,2.15,8.8,8.8,0,0,1,.53,12.14C96.2,19,88.9,18.84,85.52,14.51A8.88,8.88,0,0,1,89.8.43m.94,2A6.9,6.9,0,0,0,85.92,8.6a6.81,6.81,0,0,0,4.61,6.72c1.88.28,4,.46,5.67-.62A6.84,6.84,0,0,0,98.79,6a7,7,0,0,0-8.05-3.55"/><path d="M171.81.67c4.78-2,11.07.68,12.35,5.86,1.78,5.38-3,11.62-8.65,11.16a8.81,8.81,0,0,1-3.7-17m1.72,1.7a7.57,7.57,0,0,0-4.44,3.75,7,7,0,0,0,.57,6.51,6.73,6.73,0,0,0,8.15,2.55A6.82,6.82,0,0,0,181,5.3a6.88,6.88,0,0,0-7.48-2.93"/><path d="M130.4.1c4.08,0,8.16,0,12.24,0,0,.72,0,1.44-.08,2.18-3.24,0-6.48,0-9.72,0,0,1.78,0,3.57,0,5.35,2.87,0,5.73,0,8.61,0,0,.72.07,1.45.1,2.18-2.89,0-5.78,0-8.67,0-.09,1.9-.08,3.8,0,5.7H143c0,.72,0,1.44,0,2.17H130.4q0-8.78,0-17.54"/><path d="M153.41.09c3.82,0,7.64,0,11.46,0,0,.72-.05,1.45-.08,2.18-3,0-6,0-9,0,0,1.91,0,3.82,0,5.74q4,0,8,0c0,.74,0,1.48,0,2.22h-8c-.14,2.46-.06,4.93-.09,7.4-.79,0-1.59,0-2.37,0q0-8.79,0-17.57"/><path d="M113,3.7c2.95-4.26,9.77-4.92,13.52-1.4.44.69-.37,2.23-1.3,1.66-1.44-.83-2.86-2-4.63-1.75-3.56-.29-6.76,2.94-6.84,6.42a7,7,0,0,0,4.2,6.54,8,8,0,0,0,7.7-1.66c.42.62.83,1.25,1.22,1.9a11.92,11.92,0,0,1-6.28,2.52A9.46,9.46,0,0,1,112,12.47a9.21,9.21,0,0,1,1-8.77"/><path d="M188,.12c2.52,0,5-.07,7.55,0A6.62,6.62,0,0,1,201.16,3a7.49,7.49,0,0,1,0,6.1c-.71,1.15-1.95,1.81-2.9,2.72.82,2.16,2.63,3.79,3.66,5.86-.92,0-1.83,0-2.74-.06-1-1.83-2.17-3.59-3.31-5.35-1.82.06-3.63.06-5.45,0,0,1.78,0,3.55,0,5.33l-2.41,0c0-5.85,0-11.7,0-17.54m2.41,2.2c0,2.09,0,4.18,0,6.27.06.51-.14,1.65.74,1.47,2.35,0,4.94.37,7-1C200.13,7.66,200,4,197.74,3s-4.87-.63-7.31-.66"/><path d="M68.08,21.64c.56-.41,1.31-.18,2-.25,3.23,0,6.47,0,9.7,0,0,5.77.08,11.54,0,17.3a6.31,6.31,0,0,1-4,5.95A8.64,8.64,0,0,1,66.26,42c-.05-1.11.86-1.91,1.39-2.78,1.45,1.65,3.6,3.06,5.89,2.66.89-.35,2-.72,2.34-1.71a10.92,10.92,0,0,0,.6-4.54c0-3.82,0-7.65-.06-11.47-2.77,0-5.53,0-8.3,0,0-.85-.07-1.71,0-2.55"/><path d="M85.41,21.4h3.26c0,4.6,0,9.2,0,13.81,0,2.17.65,4.59,2.58,5.83a7.34,7.34,0,0,0,9.43-.94,6.1,6.1,0,0,0,1.44-4c.09-4.88,0-9.77,0-14.66h3.27c0,4.74,0,9.49,0,14.23A9.94,9.94,0,0,1,103,42.41a9.28,9.28,0,0,1-7.2,2.67A9.33,9.33,0,0,1,87.65,42c-1.86-2.08-2.18-5-2.23-7.67,0-4.31,0-8.62,0-12.93"/><path d="M113.83,22.28c4.12-2.14,9.21-1.28,13,1.1l-1.23,2.67c-2.82-1-5.82-2.63-8.85-1.55a2.91,2.91,0,0,0-2.14,4c.78,1.42,2.44,2,3.88,2.51a42.87,42.87,0,0,1,5.76,2.17,6.23,6.23,0,0,1,2.4,8.09,8,8,0,0,1-4.19,3.28,13.49,13.49,0,0,1-13.12-3.14c.48-.9.95-1.81,1.4-2.72,2.33,2.06,5.36,3.6,8.55,3.28,1.77,0,4.11-.83,4.31-2.87.46-1.7-.93-3.18-2.4-3.77C118,34,114.15,33.72,111.8,30.9a6,6,0,0,1,2-8.62"/><path d="M129.44,21.39c6.17,0,12.34,0,18.51,0,0,.92,0,1.84,0,2.76-2.51.06-5-.1-7.54.16-.08,6.88-.06,13.76,0,20.64H137c0-6.94,0-13.87,0-20.8-2.52,0-5,0-7.57,0V21.39"/><path d="M151.65,21.4h3.26q0,11.77,0,23.57h-3.25c0-7.85,0-15.7,0-23.56"/><path d="M185.64,21.43c5.37-.09,10.76,0,16.13,0,0,.92,0,1.85,0,2.78-4.37,0-8.74,0-13.11,0-.12,2.47-.07,4.93,0,7.4,3.89,0,7.79,0,11.68,0,0,1,0,2,0,3-3.9,0-7.8,0-11.7,0-.07,2.5-.06,5,0,7.5,4.47,0,8.94,0,13.41,0,0,1,.06,2,.08,3H185.33q0-11.65,0-23.31Z"/><path d="M160.55,28.6a12,12,0,0,1,8.83-7.13c2.46-.18,5.06-.39,7.38.63a15.73,15.73,0,0,1,3.93,2.61c-.63.7-1.05,1.78-2,2.09-2-1.42-4.14-2.92-6.68-2.75A9,9,0,0,0,170.32,42a10.86,10.86,0,0,0,5.34-.57c1.17-.47,2.08-1.39,3.26-1.82a7.29,7.29,0,0,1,1.6,1.72c-.06.74-.92,1-1.4,1.5-5,3.68-12.74,2.94-16.67-1.93a12,12,0,0,1-1.9-12.28"/><path d="M66.38,57v-5.4h2a5.46,5.46,0,0,1,.82,0,1.62,1.62,0,0,1,.67.25,1.38,1.38,0,0,1,.43.52,1.67,1.67,0,0,1,.16.74,1.63,1.63,0,0,1-.43,1.16,2.11,2.11,0,0,1-1.59.48H67.09V57Zm.71-2.84h1.39a1.51,1.51,0,0,0,1-.25.94.94,0,0,0,.29-.73,1,1,0,0,0-.17-.58.9.9,0,0,0-.45-.32,3.42,3.42,0,0,0-.67,0H67.09Z"/><path d="M71.41,57v-5.4h2.4a3.34,3.34,0,0,1,1.09.14,1.21,1.21,0,0,1,.6.52,1.5,1.5,0,0,1,.23.81,1.4,1.4,0,0,1-.37,1,1.89,1.89,0,0,1-1.15.5,1.78,1.78,0,0,1,.43.27,3.34,3.34,0,0,1,.59.72L76.17,57h-.9l-.71-1.13c-.21-.32-.38-.57-.52-.74a1.51,1.51,0,0,0-.36-.36,1.21,1.21,0,0,0-.33-.15l-.39,0h-.83V57Zm.72-3h1.53a2.24,2.24,0,0,0,.77-.1.91.91,0,0,0,.42-.32A.93.93,0,0,0,75,53.1a.81.81,0,0,0-.28-.63,1.29,1.29,0,0,0-.87-.24H72.13Z"/><path d="M76.63,54.4a3,3,0,0,1,.72-2.11,2.47,2.47,0,0,1,1.86-.76,2.57,2.57,0,0,1,1.35.36,2.34,2.34,0,0,1,.92,1,3.47,3.47,0,0,1,0,2.91,2.18,2.18,0,0,1-.94,1,2.69,2.69,0,0,1-2.67,0,2.4,2.4,0,0,1-.91-1,3,3,0,0,1-.31-1.34m.74,0A2.18,2.18,0,0,0,77.89,56a1.74,1.74,0,0,0,1.32.56,1.7,1.7,0,0,0,1.32-.57,2.28,2.28,0,0,0,.52-1.61,2.74,2.74,0,0,0-.22-1.15,1.67,1.67,0,0,0-.65-.76,1.78,1.78,0,0,0-1-.27,1.83,1.83,0,0,0-1.31.52,2.35,2.35,0,0,0-.54,1.74"/><polygon points="84.08 57.02 84.08 52.27 82.31 52.27 82.31 51.63 86.58 51.63 86.58 52.27 84.8 52.27 84.8 57.02 84.08 57.02"/><polygon points="87.33 57.02 87.33 51.63 91.23 51.63 91.23 52.27 88.04 52.27 88.04 53.92 91.03 53.92 91.03 54.55 88.04 54.55 88.04 56.39 91.36 56.39 91.36 57.02 87.33 57.02"/><path d="M96.19,55.13l.72.18a2.42,2.42,0,0,1-.81,1.35,2.27,2.27,0,0,1-1.43.46,2.5,2.5,0,0,1-1.41-.36,2.16,2.16,0,0,1-.84-1,3.66,3.66,0,0,1-.28-1.44,3.19,3.19,0,0,1,.32-1.47,2.19,2.19,0,0,1,.92-1,2.73,2.73,0,0,1,1.31-.32,2.18,2.18,0,0,1,1.36.41,2.14,2.14,0,0,1,.77,1.16l-.71.16a1.61,1.61,0,0,0-.54-.85,1.46,1.46,0,0,0-.9-.27,1.75,1.75,0,0,0-1,.3,1.55,1.55,0,0,0-.59.8,3.27,3.27,0,0,0-.17,1,3.45,3.45,0,0,0,.2,1.21,1.54,1.54,0,0,0,.63.76,1.75,1.75,0,0,0,.92.26,1.53,1.53,0,0,0,1-.35,1.7,1.7,0,0,0,.56-1"/><polygon points="99.16 57.02 99.16 52.27 97.38 52.27 97.38 51.63 101.66 51.63 101.66 52.27 99.88 52.27 99.88 57.02 99.16 57.02"/><rect x="102.51" y="51.63" width="0.71" height="5.4"/><path d="M104.27,54.4a3,3,0,0,1,.72-2.11,2.47,2.47,0,0,1,1.86-.76,2.57,2.57,0,0,1,1.35.36,2.34,2.34,0,0,1,.92,1,3.47,3.47,0,0,1,0,2.91,2.18,2.18,0,0,1-.94,1,2.69,2.69,0,0,1-2.67,0,2.4,2.4,0,0,1-.91-1,3,3,0,0,1-.31-1.34m.74,0a2.18,2.18,0,0,0,.52,1.54,1.74,1.74,0,0,0,1.32.56,1.7,1.7,0,0,0,1.32-.57,2.28,2.28,0,0,0,.52-1.61,2.74,2.74,0,0,0-.22-1.15,1.67,1.67,0,0,0-.65-.76,1.78,1.78,0,0,0-1-.27,1.83,1.83,0,0,0-1.31.52,2.35,2.35,0,0,0-.54,1.74"/><polygon points="110.34 57.02 110.34 51.63 111.08 51.63 113.91 55.87 113.91 51.63 114.59 51.63 114.59 57.02 113.86 57.02 111.03 52.78 111.03 57.02 110.34 57.02"/><path d="M116.88,57l2.07-5.4h.77l2.21,5.4h-.81l-.63-1.64h-2.26L117.64,57Zm1.56-2.22h1.83l-.57-1.5c-.17-.45-.3-.82-.38-1.11a6.62,6.62,0,0,1-.29,1Z"/><path d="M125,54.91v-.63h2.28v2a4.32,4.32,0,0,1-1.08.64,3.29,3.29,0,0,1-1.15.21,3.19,3.19,0,0,1-1.45-.34,2.29,2.29,0,0,1-1-1,3.12,3.12,0,0,1-.33-1.44,3.36,3.36,0,0,1,.33-1.47,2.22,2.22,0,0,1,.95-1,3,3,0,0,1,1.42-.33,2.74,2.74,0,0,1,1.06.19,1.71,1.71,0,0,1,.74.52,2.3,2.3,0,0,1,.41.89l-.64.17a1.91,1.91,0,0,0-.3-.64,1.22,1.22,0,0,0-.52-.38,1.78,1.78,0,0,0-.74-.14,2.19,2.19,0,0,0-.85.15,1.64,1.64,0,0,0-.58.39,2,2,0,0,0-.34.53,3,3,0,0,0-.2,1.09,2.61,2.61,0,0,0,.25,1.21,1.57,1.57,0,0,0,.72.72,2.34,2.34,0,0,0,1.91,0,2,2,0,0,0,.67-.38v-1Z"/><path d="M127.77,57l2.07-5.4h.77l2.21,5.4H132l-.63-1.64h-2.26L128.53,57Zm1.56-2.22h1.83l-.56-1.5c-.18-.45-.3-.82-.39-1.11a6.62,6.62,0,0,1-.29,1Z"/><rect x="133.51" y="51.63" width="0.71" height="5.4"/><polygon points="135.48 57.02 135.48 51.63 136.21 51.63 139.05 55.87 139.05 51.63 139.73 51.63 139.73 57.02 139 57.02 136.17 52.78 136.17 57.02 135.48 57.02"/><path d="M140.69,55.29l.67-.06a1.48,1.48,0,0,0,.23.67,1.19,1.19,0,0,0,.54.42,2.15,2.15,0,0,0,.83.16,2,2,0,0,0,.72-.12,1,1,0,0,0,.46-.34.72.72,0,0,0,.16-.46.67.67,0,0,0-.15-.44,1,1,0,0,0-.49-.32,7.74,7.74,0,0,0-1-.27,4.9,4.9,0,0,1-1-.33,1.41,1.41,0,0,1-.57-.5,1.22,1.22,0,0,1-.19-.68,1.33,1.33,0,0,1,.23-.76,1.39,1.39,0,0,1,.67-.54,2.64,2.64,0,0,1,1-.18,2.68,2.68,0,0,1,1.06.19,1.56,1.56,0,0,1,.71.57,1.64,1.64,0,0,1,.26.85l-.68.05a1.08,1.08,0,0,0-.38-.77,1.41,1.41,0,0,0-.94-.26,1.56,1.56,0,0,0-.94.23.72.72,0,0,0-.3.58.59.59,0,0,0,.21.47,2.76,2.76,0,0,0,1.08.39,7.69,7.69,0,0,1,1.19.34,1.67,1.67,0,0,1,.7.55,1.36,1.36,0,0,1,.22.77,1.47,1.47,0,0,1-.24.81,1.68,1.68,0,0,1-.71.6,2.51,2.51,0,0,1-1,.21,3,3,0,0,1-1.23-.22,1.62,1.62,0,0,1-.77-.64,1.79,1.79,0,0,1-.3-1"/><polygon points="147.33 57.02 147.33 52.27 145.56 52.27 145.56 51.63 149.83 51.63 149.83 52.27 148.05 52.27 148.05 57.02 147.33 57.02"/><path d="M156.37,55.13l.72.18a2.42,2.42,0,0,1-.81,1.35,2.27,2.27,0,0,1-1.43.46,2.56,2.56,0,0,1-1.42-.36,2.2,2.2,0,0,1-.83-1,3.66,3.66,0,0,1-.28-1.44,3.07,3.07,0,0,1,.32-1.47,2.19,2.19,0,0,1,.92-1,2.72,2.72,0,0,1,1.3-.32A2.07,2.07,0,0,1,157,53.11l-.71.16a1.61,1.61,0,0,0-.54-.85,1.46,1.46,0,0,0-.9-.27,1.73,1.73,0,0,0-1,.3,1.55,1.55,0,0,0-.59.8,3.27,3.27,0,0,0-.17,1,3.45,3.45,0,0,0,.2,1.21,1.54,1.54,0,0,0,.63.76,1.74,1.74,0,0,0,.91.26,1.56,1.56,0,0,0,1-.35,1.7,1.7,0,0,0,.56-1"/><path d="M157.75,54.4a3,3,0,0,1,.72-2.11,2.47,2.47,0,0,1,1.86-.76,2.57,2.57,0,0,1,1.35.36,2.34,2.34,0,0,1,.92,1,3.47,3.47,0,0,1,0,2.91,2.18,2.18,0,0,1-.94,1,2.69,2.69,0,0,1-2.67,0,2.4,2.4,0,0,1-.91-1,3,3,0,0,1-.31-1.34m.74,0A2.18,2.18,0,0,0,159,56a1.74,1.74,0,0,0,1.32.56,1.7,1.7,0,0,0,1.32-.57,2.28,2.28,0,0,0,.53-1.61,2.74,2.74,0,0,0-.23-1.15,1.67,1.67,0,0,0-.65-.76,1.78,1.78,0,0,0-1-.27,1.83,1.83,0,0,0-1.31.52,2.35,2.35,0,0,0-.54,1.74"/><path d="M163.84,57v-5.4h2.4a3.34,3.34,0,0,1,1.09.14,1.21,1.21,0,0,1,.6.52,1.5,1.5,0,0,1,.23.81,1.36,1.36,0,0,1-.38,1,1.86,1.86,0,0,1-1.14.5,1.78,1.78,0,0,1,.43.27,3.67,3.67,0,0,1,.59.72L168.6,57h-.9L167,55.9c-.21-.32-.38-.57-.52-.74a1.72,1.72,0,0,0-.36-.36,1.21,1.21,0,0,0-.33-.15l-.4,0h-.82V57Zm.72-3h1.53a2.28,2.28,0,0,0,.77-.1.91.91,0,0,0,.42-.32.93.93,0,0,0,.14-.49.81.81,0,0,0-.28-.63,1.32,1.32,0,0,0-.88-.24h-1.7Z"/><path d="M169.29,57v-5.4h2.39a3.41,3.41,0,0,1,1.1.14,1.21,1.21,0,0,1,.6.52,1.49,1.49,0,0,1,.22.81,1.35,1.35,0,0,1-.37,1,1.89,1.89,0,0,1-1.15.5,1.78,1.78,0,0,1,.43.27,3.34,3.34,0,0,1,.59.72L174,57h-.9l-.71-1.13c-.21-.32-.38-.57-.52-.74a1.51,1.51,0,0,0-.36-.36,1,1,0,0,0-.32-.15l-.4,0H170V57Zm.71-3h1.54a2.22,2.22,0,0,0,.76-.1.82.82,0,0,0,.42-.32.85.85,0,0,0,.14-.49.83.83,0,0,0-.27-.63,1.34,1.34,0,0,0-.88-.24H170Z"/><path d="M178.26,51.63H179v3.12a3.77,3.77,0,0,1-.18,1.29,1.55,1.55,0,0,1-.66.78,2.35,2.35,0,0,1-1.26.3,2.7,2.7,0,0,1-1.25-.26,1.48,1.48,0,0,1-.68-.76,3.53,3.53,0,0,1-.21-1.35V51.63h.71v3.11a2.93,2.93,0,0,0,.14,1,1,1,0,0,0,.44.51,1.61,1.61,0,0,0,.78.18,1.54,1.54,0,0,0,1.13-.35,2.1,2.1,0,0,0,.33-1.38Z"/><path d="M180.16,57v-5.4h2a5.46,5.46,0,0,1,.82,0,1.67,1.67,0,0,1,.67.25,1.38,1.38,0,0,1,.43.52,1.67,1.67,0,0,1,.16.74,1.6,1.6,0,0,1-.44,1.16,2.09,2.09,0,0,1-1.58.48h-1.38V57Zm.72-2.84h1.39a1.53,1.53,0,0,0,1-.25.94.94,0,0,0,.29-.73,1,1,0,0,0-.17-.58.88.88,0,0,0-.46-.32,3.3,3.3,0,0,0-.66,0h-1.38Z"/><polygon points="186.56 57.02 186.56 52.27 184.79 52.27 184.79 51.63 189.06 51.63 189.06 52.27 187.28 52.27 187.28 57.02 186.56 57.02"/><rect x="189.92" y="51.63" width="0.71" height="5.4"/><path d="M191.67,54.4a3,3,0,0,1,.72-2.11,2.51,2.51,0,0,1,1.87-.76,2.54,2.54,0,0,1,1.34.36,2.34,2.34,0,0,1,.92,1,3.47,3.47,0,0,1,0,2.91,2.18,2.18,0,0,1-.94,1,2.59,2.59,0,0,1-1.31.34,2.62,2.62,0,0,1-1.36-.37,2.4,2.4,0,0,1-.91-1,3.1,3.1,0,0,1-.31-1.34m.74,0a2.18,2.18,0,0,0,.52,1.54,1.74,1.74,0,0,0,1.32.56,1.72,1.72,0,0,0,1.33-.57,2.32,2.32,0,0,0,.52-1.61,2.91,2.91,0,0,0-.22-1.15,1.69,1.69,0,0,0-.66-.76,1.74,1.74,0,0,0-1-.27,1.8,1.8,0,0,0-1.3.52,2.31,2.31,0,0,0-.55,1.74"/><polygon points="197.75 57.02 197.75 51.63 198.48 51.63 201.31 55.87 201.31 51.63 202 51.63 202 57.02 201.27 57.02 198.43 52.78 198.43 57.02 197.75 57.02"/><path class="cls-1" d="M37,49.53q-1.52,3.78-3.05,7.55c-1.27,0-2.54,0-3.81,0,.59-1.53.3-3.18.34-4.76,0-4.82,0-9.65,0-14.47a6.38,6.38,0,0,0-.36-2,13.69,13.69,0,0,0,11.29-9.29c.9-2.55.68-5.3.64-8A1.61,1.61,0,0,0,39,18.32c-.23,2.48.26,5.07-.66,7.46a10.48,10.48,0,0,1-20.06-.91c-.58-2.14-.13-4.39-.39-6.56a1.6,1.6,0,0,0-3.06.3c-.06,2.76-.26,5.62.74,8.26a13.73,13.73,0,0,0,11.2,9,12.5,12.5,0,0,0-.34,4.44c0,4.12,0,8.25,0,12.37,0,1.48-.23,3,.34,4.43-1.27-.07-2.55,0-3.82,0C15.27,38.07,7.68,19,0,0L22.48,0a9.64,9.64,0,0,0-3.09,7.74c2.29,0,4.58-.09,6.87.06a1.2,1.2,0,0,1-.16,2.3c-2.22.09-4.45,0-6.68,0,0,.8,0,1.6,0,2.41,2.21,0,4.42,0,6.63,0,1.35,0,1.35,2.28,0,2.32-2.21.11-4.43,0-6.64.06,0,.76,0,1.53,0,2.3,2.33.2,4.67-.06,7,.14A1.19,1.19,0,0,1,26,19.64c-2.21,0-4.41,0-6.62,0,0,2.19-.19,4.5.83,6.52a9,9,0,0,0,17.22-3.42c0-5.38,0-10.76,0-16.14A9.28,9.28,0,0,0,34.41,0c7.49.05,15,0,22.49,0C50.23,16.52,43.65,33,37,49.53Z"/></g></g></svg>